<mxfile host="app.diagrams.net" modified="2024-02-08T17:24:26.732Z" agent="Mozilla/5.0 (Windows NT 10.0; Win64; x64) AppleWebKit/537.36 (KHTML, like Gecko) Chrome/121.0.0.0 Safari/537.36" etag="eY2nfolZLSomd-CsKpPh" version="23.1.2" type="device">
  <diagram name="Página-1" id="fvW9khtwhYqxGIUl-ZdG">
    <mxGraphModel dx="2160" dy="649" grid="1" gridSize="10" guides="1" tooltips="1" connect="1" arrows="1" fold="1" page="1" pageScale="1" pageWidth="1169" pageHeight="827" math="1" shadow="0">
      <root>
        <mxCell id="0" />
        <mxCell id="1" parent="0" />
        <mxCell id="sTG0me55Y1syV8i09y39-56" style="edgeStyle=orthogonalEdgeStyle;rounded=0;orthogonalLoop=1;jettySize=auto;html=1;" edge="1" parent="1" source="sTG0me55Y1syV8i09y39-1">
          <mxGeometry relative="1" as="geometry">
            <mxPoint x="810" y="290" as="targetPoint" />
          </mxGeometry>
        </mxCell>
        <mxCell id="sTG0me55Y1syV8i09y39-1" value="contrôleur PI" style="rounded=0;whiteSpace=wrap;html=1;" vertex="1" parent="1">
          <mxGeometry x="640" y="260" width="120" height="60" as="geometry" />
        </mxCell>
        <mxCell id="sTG0me55Y1syV8i09y39-11" style="edgeStyle=orthogonalEdgeStyle;rounded=0;orthogonalLoop=1;jettySize=auto;html=1;exitX=1;exitY=0.5;exitDx=0;exitDy=0;" edge="1" parent="1" source="sTG0me55Y1syV8i09y39-5" target="sTG0me55Y1syV8i09y39-2">
          <mxGeometry relative="1" as="geometry" />
        </mxCell>
        <mxCell id="sTG0me55Y1syV8i09y39-29" style="edgeStyle=orthogonalEdgeStyle;rounded=0;orthogonalLoop=1;jettySize=auto;html=1;" edge="1" parent="1" source="sTG0me55Y1syV8i09y39-2">
          <mxGeometry relative="1" as="geometry">
            <mxPoint x="180" y="300" as="targetPoint" />
          </mxGeometry>
        </mxCell>
        <mxCell id="sTG0me55Y1syV8i09y39-2" value="contrôleur PI" style="rounded=0;whiteSpace=wrap;html=1;" vertex="1" parent="1">
          <mxGeometry x="20" y="270" width="120" height="60" as="geometry" />
        </mxCell>
        <mxCell id="sTG0me55Y1syV8i09y39-10" style="edgeStyle=orthogonalEdgeStyle;rounded=0;orthogonalLoop=1;jettySize=auto;html=1;entryX=1;entryY=0.5;entryDx=0;entryDy=0;" edge="1" parent="1" target="sTG0me55Y1syV8i09y39-7">
          <mxGeometry relative="1" as="geometry">
            <mxPoint x="220" y="330" as="sourcePoint" />
            <Array as="points">
              <mxPoint x="220" y="400" />
            </Array>
          </mxGeometry>
        </mxCell>
        <mxCell id="sTG0me55Y1syV8i09y39-3" value="tension&amp;nbsp;&lt;br&gt;d&#39;alimentation&lt;br&gt;&amp;nbsp;du stator" style="text;html=1;strokeColor=none;fillColor=none;align=center;verticalAlign=middle;whiteSpace=wrap;rounded=0;" vertex="1" parent="1">
          <mxGeometry x="190" y="285" width="60" height="30" as="geometry" />
        </mxCell>
        <mxCell id="sTG0me55Y1syV8i09y39-12" style="edgeStyle=orthogonalEdgeStyle;rounded=0;orthogonalLoop=1;jettySize=auto;html=1;exitX=0;exitY=0.5;exitDx=0;exitDy=0;" edge="1" parent="1" source="sTG0me55Y1syV8i09y39-7" target="sTG0me55Y1syV8i09y39-5">
          <mxGeometry relative="1" as="geometry">
            <Array as="points">
              <mxPoint x="-40" y="400" />
            </Array>
          </mxGeometry>
        </mxCell>
        <mxCell id="sTG0me55Y1syV8i09y39-5" value="currents du stator" style="text;html=1;strokeColor=none;fillColor=none;align=center;verticalAlign=middle;whiteSpace=wrap;rounded=0;" vertex="1" parent="1">
          <mxGeometry x="-70" y="285" width="60" height="30" as="geometry" />
        </mxCell>
        <mxCell id="sTG0me55Y1syV8i09y39-7" value="machine &lt;br&gt;asynchrone &lt;br&gt;à cage" style="rounded=0;whiteSpace=wrap;html=1;" vertex="1" parent="1">
          <mxGeometry x="30" y="370" width="100" height="60" as="geometry" />
        </mxCell>
        <mxCell id="sTG0me55Y1syV8i09y39-16" style="edgeStyle=orthogonalEdgeStyle;rounded=0;orthogonalLoop=1;jettySize=auto;html=1;entryX=0.5;entryY=0;entryDx=0;entryDy=0;" edge="1" parent="1" target="sTG0me55Y1syV8i09y39-2">
          <mxGeometry relative="1" as="geometry">
            <mxPoint x="80" y="230" as="sourcePoint" />
          </mxGeometry>
        </mxCell>
        <mxCell id="sTG0me55Y1syV8i09y39-38" style="edgeStyle=orthogonalEdgeStyle;rounded=0;orthogonalLoop=1;jettySize=auto;html=1;entryX=0.5;entryY=0;entryDx=0;entryDy=0;" edge="1" parent="1" target="sTG0me55Y1syV8i09y39-1">
          <mxGeometry relative="1" as="geometry">
            <mxPoint x="700" y="220" as="sourcePoint" />
          </mxGeometry>
        </mxCell>
        <mxCell id="sTG0me55Y1syV8i09y39-18" style="edgeStyle=orthogonalEdgeStyle;rounded=0;orthogonalLoop=1;jettySize=auto;html=1;" edge="1" parent="1" source="sTG0me55Y1syV8i09y39-17">
          <mxGeometry relative="1" as="geometry">
            <mxPoint x="80" y="180" as="targetPoint" />
          </mxGeometry>
        </mxCell>
        <mxCell id="sTG0me55Y1syV8i09y39-17" value="contrôleur &lt;br&gt;de vitesse" style="rounded=0;whiteSpace=wrap;html=1;" vertex="1" parent="1">
          <mxGeometry x="20" y="80" width="120" height="60" as="geometry" />
        </mxCell>
        <mxCell id="sTG0me55Y1syV8i09y39-24" style="edgeStyle=orthogonalEdgeStyle;rounded=0;orthogonalLoop=1;jettySize=auto;html=1;entryX=1;entryY=0.5;entryDx=0;entryDy=0;" edge="1" parent="1" source="sTG0me55Y1syV8i09y39-23" target="sTG0me55Y1syV8i09y39-17">
          <mxGeometry relative="1" as="geometry">
            <Array as="points">
              <mxPoint x="160" y="110" />
              <mxPoint x="160" y="110" />
            </Array>
          </mxGeometry>
        </mxCell>
        <mxCell id="sTG0me55Y1syV8i09y39-25" value="" style="edgeStyle=orthogonalEdgeStyle;rounded=0;orthogonalLoop=1;jettySize=auto;html=1;" edge="1" parent="1" source="sTG0me55Y1syV8i09y39-7" target="sTG0me55Y1syV8i09y39-23">
          <mxGeometry relative="1" as="geometry">
            <mxPoint x="-70" y="110" as="targetPoint" />
            <mxPoint x="80" y="430" as="sourcePoint" />
            <Array as="points">
              <mxPoint x="80" y="440" />
              <mxPoint x="280" y="440" />
              <mxPoint x="280" y="110" />
            </Array>
          </mxGeometry>
        </mxCell>
        <mxCell id="sTG0me55Y1syV8i09y39-23" value="&lt;font style=&quot;font-size: 13px;&quot;&gt;$$\omega_m$$&lt;/font&gt;" style="text;html=1;strokeColor=none;fillColor=none;align=center;verticalAlign=middle;whiteSpace=wrap;rounded=0;" vertex="1" parent="1">
          <mxGeometry x="180" y="95" width="60" height="30" as="geometry" />
        </mxCell>
        <mxCell id="sTG0me55Y1syV8i09y39-27" style="edgeStyle=orthogonalEdgeStyle;rounded=0;orthogonalLoop=1;jettySize=auto;html=1;entryX=0;entryY=0.5;entryDx=0;entryDy=0;" edge="1" parent="1" source="sTG0me55Y1syV8i09y39-26" target="sTG0me55Y1syV8i09y39-17">
          <mxGeometry relative="1" as="geometry" />
        </mxCell>
        <mxCell id="sTG0me55Y1syV8i09y39-26" value="$$\omega_{m_{ref}}$$" style="text;html=1;strokeColor=none;fillColor=none;align=center;verticalAlign=middle;whiteSpace=wrap;rounded=0;" vertex="1" parent="1">
          <mxGeometry x="-80" y="95" width="60" height="30" as="geometry" />
        </mxCell>
        <mxCell id="sTG0me55Y1syV8i09y39-28" value="(désirée)" style="text;html=1;strokeColor=none;fillColor=none;align=center;verticalAlign=middle;whiteSpace=wrap;rounded=0;" vertex="1" parent="1">
          <mxGeometry x="-80" y="120" width="60" height="30" as="geometry" />
        </mxCell>
        <mxCell id="sTG0me55Y1syV8i09y39-36" style="edgeStyle=orthogonalEdgeStyle;rounded=0;orthogonalLoop=1;jettySize=auto;html=1;entryX=0;entryY=0.5;entryDx=0;entryDy=0;" edge="1" parent="1" source="sTG0me55Y1syV8i09y39-30" target="sTG0me55Y1syV8i09y39-1">
          <mxGeometry relative="1" as="geometry" />
        </mxCell>
        <mxCell id="sTG0me55Y1syV8i09y39-30" value="currents du rotor" style="text;html=1;strokeColor=none;fillColor=none;align=center;verticalAlign=middle;whiteSpace=wrap;rounded=0;" vertex="1" parent="1">
          <mxGeometry x="540" y="275" width="60" height="30" as="geometry" />
        </mxCell>
        <mxCell id="sTG0me55Y1syV8i09y39-33" style="edgeStyle=orthogonalEdgeStyle;rounded=0;orthogonalLoop=1;jettySize=auto;html=1;entryX=1;entryY=0.5;entryDx=0;entryDy=0;" edge="1" parent="1" target="sTG0me55Y1syV8i09y39-32">
          <mxGeometry relative="1" as="geometry">
            <mxPoint x="850" y="310" as="sourcePoint" />
            <Array as="points">
              <mxPoint x="850" y="385" />
            </Array>
          </mxGeometry>
        </mxCell>
        <mxCell id="sTG0me55Y1syV8i09y39-31" value="tensions d&#39;alimentation du rotor" style="text;html=1;strokeColor=none;fillColor=none;align=center;verticalAlign=middle;whiteSpace=wrap;rounded=0;" vertex="1" parent="1">
          <mxGeometry x="820" y="270" width="60" height="30" as="geometry" />
        </mxCell>
        <mxCell id="sTG0me55Y1syV8i09y39-35" style="edgeStyle=orthogonalEdgeStyle;rounded=0;orthogonalLoop=1;jettySize=auto;html=1;entryX=0.5;entryY=1;entryDx=0;entryDy=0;" edge="1" parent="1" source="sTG0me55Y1syV8i09y39-32" target="sTG0me55Y1syV8i09y39-30">
          <mxGeometry relative="1" as="geometry" />
        </mxCell>
        <mxCell id="sTG0me55Y1syV8i09y39-32" value="machine &lt;br&gt;asynchrone &lt;br&gt;à double alimentation" style="rounded=0;whiteSpace=wrap;html=1;" vertex="1" parent="1">
          <mxGeometry x="645" y="350" width="110" height="70" as="geometry" />
        </mxCell>
        <mxCell id="sTG0me55Y1syV8i09y39-37" value="currents de référence&amp;nbsp;&lt;br&gt;du stator" style="text;html=1;strokeColor=none;fillColor=none;align=center;verticalAlign=middle;whiteSpace=wrap;rounded=0;" vertex="1" parent="1">
          <mxGeometry x="35" y="190" width="90" height="30" as="geometry" />
        </mxCell>
        <mxCell id="sTG0me55Y1syV8i09y39-55" style="edgeStyle=orthogonalEdgeStyle;rounded=0;orthogonalLoop=1;jettySize=auto;html=1;" edge="1" parent="1" source="sTG0me55Y1syV8i09y39-39">
          <mxGeometry relative="1" as="geometry">
            <mxPoint x="700" y="170" as="targetPoint" />
          </mxGeometry>
        </mxCell>
        <mxCell id="sTG0me55Y1syV8i09y39-39" value="contrôleur &lt;br&gt;de puissance" style="rounded=0;whiteSpace=wrap;html=1;" vertex="1" parent="1">
          <mxGeometry x="640" y="65" width="120" height="60" as="geometry" />
        </mxCell>
        <mxCell id="sTG0me55Y1syV8i09y39-42" style="edgeStyle=orthogonalEdgeStyle;rounded=0;orthogonalLoop=1;jettySize=auto;html=1;entryX=0;entryY=0.5;entryDx=0;entryDy=0;" edge="1" parent="1" source="sTG0me55Y1syV8i09y39-41" target="sTG0me55Y1syV8i09y39-39">
          <mxGeometry relative="1" as="geometry" />
        </mxCell>
        <mxCell id="sTG0me55Y1syV8i09y39-41" value="facteur de puissance désirée" style="text;html=1;strokeColor=none;fillColor=none;align=center;verticalAlign=middle;whiteSpace=wrap;rounded=0;" vertex="1" parent="1">
          <mxGeometry x="530" y="80" width="60" height="30" as="geometry" />
        </mxCell>
        <mxCell id="sTG0me55Y1syV8i09y39-48" style="edgeStyle=orthogonalEdgeStyle;rounded=0;orthogonalLoop=1;jettySize=auto;html=1;entryX=0.5;entryY=1;entryDx=0;entryDy=0;" edge="1" parent="1" target="sTG0me55Y1syV8i09y39-32">
          <mxGeometry relative="1" as="geometry">
            <mxPoint x="650" y="490" as="sourcePoint" />
            <Array as="points">
              <mxPoint x="700" y="490" />
            </Array>
          </mxGeometry>
        </mxCell>
        <mxCell id="sTG0me55Y1syV8i09y39-49" style="edgeStyle=orthogonalEdgeStyle;rounded=0;orthogonalLoop=1;jettySize=auto;html=1;entryX=0.973;entryY=0.506;entryDx=0;entryDy=0;entryPerimeter=0;" edge="1" parent="1" target="sTG0me55Y1syV8i09y39-50">
          <mxGeometry relative="1" as="geometry">
            <mxPoint x="970" y="80" as="targetPoint" />
            <mxPoint x="660" y="490" as="sourcePoint" />
            <Array as="points">
              <mxPoint x="910" y="490" />
              <mxPoint x="910" y="95" />
            </Array>
          </mxGeometry>
        </mxCell>
        <mxCell id="sTG0me55Y1syV8i09y39-45" value="tensions d&#39;alimentation du stator" style="text;html=1;strokeColor=none;fillColor=none;align=center;verticalAlign=middle;whiteSpace=wrap;rounded=0;" vertex="1" parent="1">
          <mxGeometry x="580" y="475" width="60" height="30" as="geometry" />
        </mxCell>
        <mxCell id="sTG0me55Y1syV8i09y39-46" value="réseau" style="rounded=0;whiteSpace=wrap;html=1;" vertex="1" parent="1">
          <mxGeometry x="450" y="470" width="80" height="40" as="geometry" />
        </mxCell>
        <mxCell id="sTG0me55Y1syV8i09y39-47" style="edgeStyle=orthogonalEdgeStyle;rounded=0;orthogonalLoop=1;jettySize=auto;html=1;" edge="1" parent="1">
          <mxGeometry relative="1" as="geometry">
            <mxPoint x="530" y="489.85999999999996" as="sourcePoint" />
            <mxPoint x="570" y="490" as="targetPoint" />
            <Array as="points">
              <mxPoint x="555" y="490.16" />
            </Array>
          </mxGeometry>
        </mxCell>
        <mxCell id="sTG0me55Y1syV8i09y39-51" style="edgeStyle=orthogonalEdgeStyle;rounded=0;orthogonalLoop=1;jettySize=auto;html=1;entryX=1;entryY=0.5;entryDx=0;entryDy=0;" edge="1" parent="1" source="sTG0me55Y1syV8i09y39-50" target="sTG0me55Y1syV8i09y39-39">
          <mxGeometry relative="1" as="geometry" />
        </mxCell>
        <mxCell id="sTG0me55Y1syV8i09y39-50" value="calcul du &lt;br&gt;facteur de&lt;br&gt;puissance &lt;br&gt;actuel&amp;nbsp;" style="text;html=1;align=center;verticalAlign=middle;resizable=0;points=[];autosize=1;strokeColor=none;fillColor=none;" vertex="1" parent="1">
          <mxGeometry x="810" y="60" width="80" height="70" as="geometry" />
        </mxCell>
        <mxCell id="sTG0me55Y1syV8i09y39-52" style="edgeStyle=orthogonalEdgeStyle;rounded=0;orthogonalLoop=1;jettySize=auto;html=1;entryX=0.486;entryY=1.009;entryDx=0;entryDy=0;entryPerimeter=0;" edge="1" parent="1" target="sTG0me55Y1syV8i09y39-50">
          <mxGeometry relative="1" as="geometry">
            <mxPoint x="849" y="260" as="sourcePoint" />
            <Array as="points">
              <mxPoint x="849" y="190" />
              <mxPoint x="849" y="190" />
            </Array>
          </mxGeometry>
        </mxCell>
        <mxCell id="sTG0me55Y1syV8i09y39-13" value="currents de référence&amp;nbsp;&lt;br&gt;du rotor" style="text;html=1;strokeColor=none;fillColor=none;align=center;verticalAlign=middle;whiteSpace=wrap;rounded=0;" vertex="1" parent="1">
          <mxGeometry x="655" y="180" width="90" height="30" as="geometry" />
        </mxCell>
      </root>
    </mxGraphModel>
  </diagram>
</mxfile>
